<svg width="255" height="150" viewBox="0 0 255 150" fill="none" xmlns="http://www.w3.org/2000/svg">
<path d="M233.875 51.1349C233.517 50.9456 233.072 51.082 232.883 51.4396C232.693 51.7973 232.83 52.2404 233.188 52.4296C234.764 53.2615 235.676 54.9437 235.512 56.7152L235.063 61.5987H208.413V57.6258H214.035C216.183 57.6258 218.194 56.573 219.415 54.8096C220.53 53.1994 220.86 51.1968 220.322 49.3151L219.907 47.8625C219.681 47.0711 219.836 46.2405 220.333 45.5837C220.793 44.9762 221.476 44.609 222.229 44.5571L222.12 45.2342C221.701 47.8294 223.397 50.2707 225.98 50.792L230.563 51.7168C230.612 51.7268 230.661 51.7314 230.709 51.7314C231.051 51.7314 231.357 51.4915 231.428 51.1441C231.508 50.7477 231.251 50.3612 230.854 50.2811L226.271 49.3563C224.463 48.9914 223.277 47.283 223.57 45.4668L225.786 31.7188C225.82 31.5069 225.76 31.2907 225.62 31.1274C225.481 30.9642 225.276 30.87 225.061 30.87H212.894V24.6895C212.894 22.857 211.399 21.3662 209.562 21.3662C208.882 21.3662 208.232 21.5685 207.682 21.9445C207.514 20.2682 206.092 18.9551 204.368 18.9551C203.659 18.9551 202.983 19.1748 202.422 19.581C202.083 18.1048 200.755 17 199.174 17C198.284 17 197.448 17.3457 196.818 17.9738C196.549 18.2433 196.331 18.5505 196.17 18.8834C195.584 18.3725 194.818 18.0625 193.98 18.0625C193.091 18.0625 192.254 18.4082 191.626 19.0353C190.996 19.662 190.649 20.4964 190.649 21.3848V22.7246C190.649 23.1291 190.978 23.457 191.384 23.457C191.789 23.457 192.118 23.1291 192.118 22.7246V21.3848C192.118 20.8883 192.312 20.4221 192.664 20.0717C193.015 19.7207 193.483 19.5273 193.98 19.5273C195.007 19.5273 195.842 20.3599 195.843 21.3834C195.843 21.3839 195.843 21.3844 195.843 21.3849V32.5852C195.843 32.9896 196.172 33.3176 196.577 33.3176C196.983 33.3176 197.312 32.9896 197.312 32.5852V21.3876C197.312 21.3866 197.312 21.3857 197.312 21.3848V20.3232C197.312 19.8275 197.506 19.3606 197.857 19.0091C198.209 18.6581 198.677 18.4648 199.174 18.4648C200.201 18.4648 201.037 19.2985 201.037 20.3232V22.2783C201.037 22.2793 201.037 22.2802 201.037 22.2812V32.1766C201.037 32.5811 201.366 32.909 201.771 32.909C202.177 32.909 202.506 32.5811 202.506 32.1766V22.2781C202.506 22.2776 202.505 22.2772 202.505 22.2768C202.506 21.7807 202.699 21.3153 203.053 20.9641C203.403 20.6132 203.871 20.4199 204.368 20.4199C205.395 20.4199 206.231 21.2536 206.231 22.2783V24.6895C206.231 24.6923 206.231 24.6951 206.231 24.6979V32.9087C206.231 33.3132 206.56 33.6411 206.965 33.6411C207.371 33.6411 207.699 33.3132 207.699 32.9087V24.689C207.699 24.6876 207.699 24.6862 207.699 24.6849C207.7 24.1901 207.894 23.7252 208.245 23.3753C208.597 23.0243 209.064 22.831 209.562 22.831C210.589 22.831 211.425 23.6646 211.425 24.6894V41.494C211.425 42.9601 210.698 44.3278 209.48 45.1527C209.206 45.3379 209.091 45.6824 209.197 45.9945L210.283 49.1806H191.5L192.587 45.9945C192.6 45.9562 192.61 45.9169 192.616 45.8771C192.968 45.9343 193.329 45.9653 193.697 45.9653C194.102 45.9653 194.431 45.6374 194.431 45.2329C194.431 44.8284 194.102 44.5005 193.697 44.5005C190.814 44.5005 188.469 42.1611 188.469 39.2856V32.267C188.469 31.0312 189.476 30.0258 190.715 30.0258C191.954 30.0258 192.962 31.0312 192.962 32.267V38.9817C192.962 39.3862 193.291 39.7142 193.697 39.7142C194.102 39.7142 194.431 39.3862 194.431 38.9817V32.267C194.431 30.7184 193.473 29.3893 192.118 28.836V25.6543C192.118 25.2498 191.789 24.9219 191.384 24.9219C190.978 24.9219 190.649 25.2498 190.649 25.6543V28.5627C188.631 28.598 187 30.2456 187 32.2671V39.2857C187 42.0728 188.721 44.4654 191.157 45.4653V45.6377L189.78 49.6772C189.704 49.9009 189.74 50.1475 189.878 50.3396C190.016 50.5316 190.238 50.6455 190.475 50.6455H206.704L206.944 51.9271V66.2676C206.944 66.6721 207.273 67 207.678 67H215.892C216.297 67 216.626 66.6721 216.626 66.2676V63.8682L220.295 66.8364C220.426 66.9423 220.589 67 220.757 67H235.733C236.138 67 236.467 66.6721 236.467 66.2676V62.3646L236.975 56.8496C237.193 54.4875 235.977 52.2443 233.875 51.1349V51.1349ZM211.309 50.6455C211.546 50.6455 211.768 50.5315 211.906 50.3396C212.044 50.1476 212.08 49.9009 212.004 49.6772L210.759 46.0248C212.105 44.9118 212.894 43.2564 212.894 41.4941V32.335H224.199L222.466 43.0854H222.413C221.123 43.0854 219.938 43.6743 219.161 44.7014C218.384 45.7283 218.141 47.027 218.495 48.2643L218.91 49.7169C219.328 51.1759 219.071 52.7287 218.207 53.9772C217.26 55.3446 215.701 56.1609 214.035 56.1609H208.413V51.8594C208.413 51.8144 208.409 51.7693 208.4 51.725L208.198 50.6455H211.309ZM208.413 65.5352V63.0636H215.157V65.5352H208.413ZM221.018 65.5352L217.963 63.0636H234.998V65.5352H221.018Z" fill="white"/>
<path d="M205.338 35.7324C205.743 35.7324 206.072 35.4045 206.072 35C206.072 34.5955 205.743 34.2676 205.338 34.2676C204.932 34.2676 204.604 34.5955 204.604 35C204.604 35.4045 204.932 35.7324 205.338 35.7324Z" fill="white"/>
<path d="M199.495 35.7324C199.901 35.7324 200.229 35.4045 200.229 35C200.229 34.5955 199.901 34.2676 199.495 34.2676C199.089 34.2676 198.761 34.5955 198.761 35C198.761 35.4045 199.089 35.7324 199.495 35.7324Z" fill="white"/>
<path d="M202.416 35.7324C202.822 35.7324 203.151 35.4045 203.151 35C203.151 34.5955 202.822 34.2676 202.416 34.2676C202.011 34.2676 201.682 34.5955 201.682 35C201.682 35.4045 202.011 35.7324 202.416 35.7324Z" fill="white"/>
<path d="M200.823 38.1836C201.229 38.1836 201.558 37.8557 201.558 37.4512C201.558 37.0467 201.229 36.7188 200.823 36.7188C200.418 36.7188 200.089 37.0467 200.089 37.4512C200.089 37.8557 200.418 38.1836 200.823 38.1836Z" fill="white"/>
<path d="M204.009 38.1836C204.415 38.1836 204.743 37.8557 204.743 37.4512C204.743 37.0467 204.415 36.7188 204.009 36.7188C203.604 36.7188 203.275 37.0467 203.275 37.4512C203.275 37.8557 203.604 38.1836 204.009 38.1836Z" fill="white"/>
<path d="M199.495 40.6357C199.901 40.6357 200.229 40.3078 200.229 39.9033C200.229 39.4988 199.901 39.1709 199.495 39.1709C199.089 39.1709 198.761 39.4988 198.761 39.9033C198.761 40.3078 199.089 40.6357 199.495 40.6357Z" fill="white"/>
<path d="M205.338 40.6357C205.743 40.6357 206.072 40.3078 206.072 39.9033C206.072 39.4988 205.743 39.1709 205.338 39.1709C204.932 39.1709 204.604 39.4988 204.604 39.9033C204.604 40.3078 204.932 40.6357 205.338 40.6357Z" fill="white"/>
<path d="M202.416 40.6357C202.822 40.6357 203.151 40.3078 203.151 39.9033C203.151 39.4988 202.822 39.1709 202.416 39.1709C202.011 39.1709 201.682 39.4988 201.682 39.9033C201.682 40.3078 202.011 40.6357 202.416 40.6357Z" fill="white"/>
<path d="M204.009 43.0869C204.415 43.0869 204.743 42.759 204.743 42.3545C204.743 41.95 204.415 41.6221 204.009 41.6221C203.604 41.6221 203.275 41.95 203.275 42.3545C203.275 42.759 203.604 43.0869 204.009 43.0869Z" fill="white"/>
<path d="M200.823 43.0869C201.229 43.0869 201.558 42.759 201.558 42.3545C201.558 41.95 201.229 41.6221 200.823 41.6221C200.418 41.6221 200.089 41.95 200.089 42.3545C200.089 42.759 200.418 43.0869 200.823 43.0869Z" fill="white"/>
<path d="M207.196 43.0869C207.602 43.0869 207.93 42.759 207.93 42.3545C207.93 41.95 207.602 41.6221 207.196 41.6221C206.791 41.6221 206.462 41.95 206.462 42.3545C206.462 42.759 206.791 43.0869 207.196 43.0869Z" fill="white"/>
<path d="M208.258 40.6357C208.664 40.6357 208.992 40.3078 208.992 39.9033C208.992 39.4988 208.664 39.1709 208.258 39.1709C207.853 39.1709 207.524 39.4988 207.524 39.9033C207.524 40.3078 207.853 40.6357 208.258 40.6357Z" fill="white"/>
<path d="M207.196 38.1836C207.602 38.1836 207.93 37.8557 207.93 37.4512C207.93 37.0467 207.602 36.7188 207.196 36.7188C206.791 36.7188 206.462 37.0467 206.462 37.4512C206.462 37.8557 206.791 38.1836 207.196 38.1836Z" fill="white"/>
<path d="M208.258 35.7324C208.664 35.7324 208.992 35.4045 208.992 35C208.992 34.5955 208.664 34.2676 208.258 34.2676C207.853 34.2676 207.524 34.5955 207.524 35C207.524 35.4045 207.853 35.7324 208.258 35.7324Z" fill="white"/>
<path d="M196.573 35.7324C196.979 35.7324 197.308 35.4045 197.308 35C197.308 34.5955 196.979 34.2676 196.573 34.2676C196.168 34.2676 195.839 34.5955 195.839 35C195.839 35.4045 196.168 35.7324 196.573 35.7324Z" fill="white"/>
<path d="M197.637 38.1836C198.042 38.1836 198.371 37.8557 198.371 37.4512C198.371 37.0467 198.042 36.7188 197.637 36.7188C197.231 36.7188 196.902 37.0467 196.902 37.4512C196.902 37.8557 197.231 38.1836 197.637 38.1836Z" fill="white"/>
<path d="M196.573 40.6357C196.979 40.6357 197.308 40.3078 197.308 39.9033C197.308 39.4988 196.979 39.1709 196.573 39.1709C196.168 39.1709 195.839 39.4988 195.839 39.9033C195.839 40.3078 196.168 40.6357 196.573 40.6357Z" fill="white"/>
<path d="M197.637 43.0869C198.042 43.0869 198.371 42.759 198.371 42.3545C198.371 41.95 198.042 41.6221 197.637 41.6221C197.231 41.6221 196.902 41.95 196.902 42.3545C196.902 42.759 197.231 43.0869 197.637 43.0869Z" fill="white"/>
<path d="M62.0392 27.7654L50.3725 17.1595C50.2568 17.0546 50.1293 17.0001 50 17.0004H46.7558C46.1531 16.9866 45.567 17.3584 45.0998 18.0508C44.6326 18.7432 44.3141 19.7121 44.2 20.7882C44.1394 21.4402 44.1577 22.1085 44.2538 22.7463C44.3499 23.3841 44.5213 23.9761 44.7562 24.481C44.991 24.9859 45.2836 25.3916 45.6136 25.6697C45.9436 25.9478 46.303 26.0916 46.6667 26.0912H49.75L54.75 32.1518H25.25L30.25 26.0912H33.3333C33.697 26.0916 34.0564 25.9478 34.3864 25.6697C34.7164 25.3916 35.009 24.9859 35.2438 24.481C35.4787 23.9761 35.6501 23.3841 35.7462 22.7463C35.8423 22.1085 35.8606 21.4402 35.8 20.7882C35.6859 19.7121 35.3674 18.7432 34.9002 18.0508C34.433 17.3584 33.8469 16.9866 33.2442 17.0004H30C29.8707 17.0001 29.7432 17.0546 29.6275 17.1595L17.9433 27.7821C16.0183 29.6366 15 33.2442 15 38.2123V51.8486C15 52.0792 15.029 52.3068 15.0848 52.514C15.1405 52.7211 15.2215 52.9024 15.3217 53.044L22.8333 63.6667C24.4551 65.7058 26.363 66.8621 28.3333 67H32.5C34.2758 67 35 65.3046 35.6933 63.2955L39.0267 54.2046C39.0818 54.0443 39.1232 53.8696 39.1492 53.6865C39.1906 53.3356 39.2983 53.0223 39.4536 52.8008C39.6089 52.5794 39.8019 52.4639 39.9992 52.4743C40.2024 52.468 40.4003 52.5926 40.5579 52.8261C40.7154 53.0596 40.8224 53.3869 40.86 53.7501C40.8839 53.9116 40.9219 54.065 40.9725 54.2046L44.2925 63.2576C45 65.3046 45.7242 67 47.5 67H51.6667C53.6452 66.8938 55.5624 65.7285 57.1783 63.65L64.6783 53.044C64.7785 52.9024 64.8595 52.7211 64.9152 52.514C64.971 52.3068 65 52.0792 65 51.8486V38.2123C65 33.2442 63.9817 29.6366 62.0392 27.7654V27.7654ZM50.4625 23.3155C50.3254 23.1499 50.1646 23.0614 50 23.0609H46.6667C46.5449 23.061 46.4245 23.0126 46.3141 22.919C46.2037 22.8254 46.1059 22.6889 46.0277 22.5192C45.9494 22.3494 45.8926 22.1506 45.8612 21.9366C45.8298 21.7226 45.8245 21.4987 45.8458 21.2806C45.8952 20.9137 46.0127 20.5889 46.1785 20.3612C46.3443 20.1334 46.5482 20.0167 46.7558 20.0306H49.8033L61.2767 30.4609C61.8999 31.1495 62.4145 32.1196 62.7704 33.277C63.1262 34.4343 63.3113 35.7394 63.3075 37.0654C62.6303 35.5794 61.7859 34.3743 60.8312 33.5309C59.8765 32.6876 58.8336 32.2256 57.7725 32.176L50.4625 23.3155ZM18.7058 30.4851L30.1967 20.0306H33.2442C33.4518 20.0167 33.6557 20.1334 33.8215 20.3612C33.9873 20.5889 34.1048 20.9137 34.1542 21.2806C34.1755 21.4987 34.1702 21.7226 34.1388 21.9366C34.1074 22.1506 34.0506 22.3494 33.9723 22.5192C33.8941 22.6889 33.7963 22.8254 33.6859 22.919C33.5755 23.0126 33.4551 23.061 33.3333 23.0609H30C29.8354 23.0614 29.6746 23.1499 29.5375 23.3155L22.2275 32.176C21.1664 32.2256 20.1235 32.6876 19.1688 33.5309C18.2141 34.3743 17.3697 35.5794 16.6925 37.0654C16.6883 35.7463 16.8714 34.4475 17.2241 33.2948C17.5768 32.142 18.0872 31.1743 18.7058 30.4851V30.4851ZM56.1667 61.2425C54.84 62.9117 53.2789 63.8579 51.6667 63.9697H47.5C46.6275 63.9697 46.3333 63.4758 45.6933 61.6137L42.4342 52.7259C42.2867 51.765 41.9673 50.9208 41.5265 50.3268C41.0857 49.7327 40.5485 49.4227 40 49.4456C39.4537 49.4369 38.9208 49.7523 38.4819 50.344C38.0431 50.9357 37.7224 51.7714 37.5683 52.7243L34.2933 61.6516C33.6667 63.4758 33.3725 63.9697 32.5 63.9697H28.3333C26.7289 63.8305 25.1764 62.8929 23.845 61.2591L17.6917 52.5577C18.3703 51.9388 18.9436 50.996 19.3502 49.8302C19.7569 48.6644 19.9815 47.3196 20 45.9395C19.9863 44.7267 20.2364 43.5531 20.6959 42.6736C21.1554 41.7941 21.7873 41.2799 22.4542 41.2426H57.5458C58.2127 41.2799 58.8446 41.7941 59.3041 42.6736C59.7636 43.5531 60.0137 44.7267 60 45.9395C60.0186 47.3191 60.2432 48.6636 60.6496 49.8291C61.0561 50.9945 61.6291 51.9372 62.3075 52.5562L56.1667 61.2425ZM63.3333 50.0532C62.8564 49.7451 62.4419 49.1818 62.1444 48.4372C61.8469 47.6927 61.6804 46.8019 61.6667 45.882C61.6752 43.8737 61.2468 41.9408 60.475 40.5042C59.7031 39.0676 58.6503 38.2439 57.5458 38.2123H22.4542C21.3498 38.2442 20.2971 39.0682 19.5253 40.5046C18.7535 41.9411 18.3251 43.8739 18.3333 45.882C18.3196 46.8019 18.1531 47.6927 17.8556 48.4372C17.5581 49.1818 17.1436 49.7451 16.6667 50.0532V45.788C16.6584 44.3911 16.8037 43.0052 17.0939 41.7116C17.3841 40.4181 17.8135 39.2429 18.3568 38.255C18.9001 37.2672 19.5465 36.4865 20.258 35.9588C20.9694 35.4311 21.7317 35.167 22.5 35.1821H57.5C58.2683 35.167 59.0306 35.4311 59.742 35.9588C60.4535 36.4865 61.0999 37.2672 61.6432 38.255C62.1865 39.2429 62.6159 40.4181 62.9061 41.7116C63.1963 43.0052 63.3416 44.3911 63.3333 45.788V50.0532Z" fill="white"/>
<path d="M65 108.477H63.4845C63.2681 104.872 62.2587 101.279 60.5318 98.002C58.7031 94.532 56.1901 91.6439 53.2324 89.6031V84.9418H47.3486V82H32.6514V84.9418H26.7676V89.6031C23.8099 91.6439 21.2969 94.5321 19.4682 98.002C17.7413 101.279 16.7319 104.872 16.5155 108.477H15V117.291H16.471V132H25.2845V117.291H54.7155V132H63.529V117.291H65V108.477ZM50.3027 87.8715V101.116H53.2324V93.3187C57.3727 96.9682 60.1439 102.655 60.5478 108.477H52.1271C49.171 106.866 47.3486 103.809 47.3486 100.422V87.8715H50.3027ZM35.5811 84.9297H44.4189V100.422C44.41 103.341 45.5092 106.248 47.4871 108.477H32.5131C34.4062 106.388 35.6101 103.339 35.5811 100.422V84.9297ZM26.7676 93.3187V101.116H29.6973V87.8715H32.6514V100.422C32.6514 103.809 30.8292 106.866 27.8734 108.477H19.4522C19.8561 102.655 22.6273 96.9681 26.7676 93.3187V93.3187ZM22.3548 129.07H19.4007V117.291H22.3548V129.07ZM17.9297 114.361V111.407H62.0703V114.361H17.9297ZM60.5993 129.07H57.6452V117.291H60.5993V129.07Z" fill="white"/>
<path d="M125 82L100 95.9587V118.039L125 132L150 118.039V95.9587L125 82ZM125 86.7901L139.716 95.0066V99.9439L125 97.2094L110.284 99.9439V95.0066L125 86.7901ZM110.284 104.479L125 101.744L139.716 104.479V109.52L125 112.255L110.284 109.52V104.479ZM102.93 99.1129L107.354 96.6424V117.356L102.93 114.885V99.1129ZM125 127.21L110.284 118.992V114.056L125 116.79L139.716 114.056V118.992L125 127.21ZM147.07 114.885L142.646 117.356V96.6424L147.07 99.1129V114.885Z" fill="white"/>
<path d="M141.497 46.6538L142.791 41.8192L141.116 38.6907V36.1162C141.116 25.5755 132.541 17 122 17C111.459 17 102.884 25.5755 102.884 36.1162V38.6907L101.209 41.8192L102.503 46.6538C99.3414 47.4747 97 50.3527 97 53.7676V59.6515C97 63.7035 100.296 67 104.349 67H111.697V46.4189H105.473L104.339 42.1808L105.813 39.4256V37.5811H111.697V36.1162C111.697 30.4353 116.319 25.8135 122 25.8135C127.681 25.8135 132.303 30.4353 132.303 36.1162V37.5811H138.187V39.4255L139.661 42.1807L138.527 46.4188H132.303V67H139.652C143.704 67 147 63.7035 147 59.6515V53.7674C147 50.3526 144.659 47.4746 141.497 46.6538V46.6538ZM99.9297 59.6515V53.7674C99.9297 51.8442 101.165 50.205 102.884 49.5992V63.8196C101.165 63.214 99.9297 61.5747 99.9297 59.6515V59.6515ZM108.768 64.0703H105.813V49.3486H108.768V64.0703ZM122 22.8838C115.199 22.8838 109.579 28.042 108.848 34.6514H105.88C106.623 26.4101 113.569 19.9297 122 19.9297C130.431 19.9297 137.377 26.4101 138.12 34.6514H135.152C134.421 28.042 128.801 22.8838 122 22.8838ZM135.232 49.3486H138.187V64.0703H135.232V49.3486ZM144.07 59.6515C144.07 61.5746 142.835 63.2139 141.116 63.8196V49.5992C142.835 50.2051 144.07 51.8443 144.07 53.7676V59.6515Z" fill="white"/>
<path d="M185.996 107.084C185.84 107.084 185.691 107.146 185.582 107.256C185.472 107.366 185.41 107.515 185.41 107.67V108.069C185.41 108.224 185.472 108.373 185.582 108.483C185.691 108.593 185.84 108.655 185.996 108.655C186.151 108.655 186.3 108.593 186.41 108.483C186.52 108.373 186.582 108.224 186.582 108.069V107.67C186.582 107.515 186.52 107.366 186.41 107.256C186.3 107.146 186.151 107.084 185.996 107.084V107.084Z" fill="white"/>
<path d="M185.996 109.616C185.84 109.616 185.691 109.678 185.582 109.788C185.472 109.898 185.41 110.047 185.41 110.202V116.475C185.41 116.63 185.472 116.779 185.582 116.889C185.691 116.999 185.84 117.061 185.996 117.061C186.151 117.061 186.3 116.999 186.41 116.889C186.52 116.779 186.582 116.63 186.582 116.475V110.202C186.582 110.047 186.52 109.898 186.41 109.788C186.3 109.678 186.151 109.616 185.996 109.616Z" fill="white"/>
<path d="M215.513 91.7044V85.5879C215.512 84.9018 215.239 84.244 214.754 83.7588C214.269 83.2737 213.611 83.0008 212.925 83H208.242C208.087 83 207.938 83.0617 207.828 83.1716C207.718 83.2815 207.656 83.4305 207.656 83.5859V84.0896C207.656 85.6128 207.051 87.0735 205.974 88.1505C204.897 89.2276 203.436 89.8326 201.913 89.8326C200.39 89.8326 198.929 89.2276 197.852 88.1505C196.775 87.0735 196.17 85.6128 196.17 84.0896V83.5859C196.17 83.4305 196.108 83.2815 195.999 83.1716C195.889 83.0617 195.74 83 195.584 83H190.901C190.215 83.0008 189.557 83.2737 189.072 83.7589C188.587 84.244 188.314 84.9018 188.313 85.5879V91.7044C188.324 96.1001 186.591 100.321 183.495 103.441C182.534 104.409 181.997 105.718 182 107.082V129.436C182.001 130.122 182.274 130.779 182.759 131.265C183.244 131.75 183.902 132.023 184.588 132.023H219.238C219.924 132.023 220.582 131.75 221.067 131.265C221.552 130.779 221.825 130.122 221.826 129.436V107.082C221.829 105.718 221.292 104.409 220.331 103.441C217.235 100.321 215.502 96.1001 215.513 91.7044V91.7044ZM198.024 130.852H184.588C184.213 130.851 183.853 130.702 183.587 130.436C183.322 130.171 183.173 129.811 183.172 129.436V124.992H198.024V130.852ZM198.024 123.82H183.172V119.132H198.024V123.82ZM204.631 97.4009V130.852H199.196V109.526C199.196 109.371 199.134 109.222 199.024 109.112C198.914 109.002 198.765 108.94 198.61 108.94C198.454 108.94 198.305 109.002 198.195 109.112C198.085 109.222 198.024 109.371 198.024 109.526V117.96H183.172V107.082C183.169 106.027 183.585 105.014 184.329 104.265C187.642 100.926 189.496 96.4089 189.485 91.7047V85.5879C189.485 85.2125 189.635 84.8526 189.9 84.5871C190.166 84.3217 190.525 84.1723 190.901 84.1719H192.617V91.995C192.619 93.4822 193.173 94.9157 194.172 96.0176C195.171 97.1194 196.543 97.811 198.023 97.9583V104.643C198.023 104.799 198.085 104.948 198.195 105.057C198.305 105.167 198.454 105.229 198.609 105.229C198.765 105.229 198.914 105.167 199.024 105.057C199.133 104.948 199.195 104.799 199.195 104.643V97.4008C199.196 97.246 199.135 97.0974 199.026 96.9876C198.917 96.8777 198.769 96.8156 198.614 96.8148C197.335 96.8146 196.109 96.3068 195.205 95.4031C194.3 94.4994 193.791 93.2736 193.79 91.995V84.1719H194.999C195.026 85.9876 195.767 87.7197 197.06 88.9941C198.354 90.2684 200.097 90.9828 201.913 90.9828C203.729 90.9828 205.472 90.2684 206.766 88.9941C208.059 87.7197 208.8 85.9876 208.827 84.1719H210.036V91.995C210.035 93.2729 209.527 94.498 208.623 95.4016C207.719 96.3052 206.494 96.8134 205.216 96.8148C205.061 96.8149 204.912 96.8767 204.802 96.9866C204.692 97.0964 204.631 97.2454 204.631 97.4008V97.4009ZM220.654 129.436C220.654 129.811 220.505 130.171 220.239 130.436C219.974 130.702 219.614 130.851 219.238 130.852H205.803V124.992H220.654V129.436ZM220.654 123.82H205.803V119.132H220.654V123.82ZM220.654 117.96H205.803V97.9583C207.282 97.811 208.655 97.1194 209.654 96.0176C210.653 94.9157 211.207 93.4822 211.209 91.995V84.1719H212.925C213.3 84.1723 213.66 84.3217 213.926 84.5871C214.191 84.8526 214.341 85.2125 214.341 85.5879V91.7044C214.329 96.4086 216.184 100.925 219.497 104.264C220.241 105.013 220.657 106.027 220.654 107.082V117.96Z" fill="white"/>
</svg>
