<svg width="255" height="150" viewBox="0 0 255 150" fill="none" xmlns="http://www.w3.org/2000/svg">
<path d="M64.8538 63.4171H64.6531C64.4474 63.4171 64.2616 63.3386 64.1907 63.2216C63.7735 62.5323 63.27 61.8519 62.6937 61.1989C62.5966 61.089 62.6291 60.9603 62.7738 60.8793L62.9167 60.7993C65.3131 59.458 65.3131 57.2752 62.9167 55.9337L58.5818 53.5074C56.1851 52.1662 52.2854 52.1662 49.8889 53.5074L49.7468 53.5869C49.6013 53.6685 49.3715 53.6865 49.1752 53.6323C48.0091 53.3096 46.7929 53.0278 45.5619 52.7944C45.3527 52.7547 45.2122 52.6509 45.2122 52.5354V52.4231C45.2122 51.6593 44.7741 50.936 43.9453 50.3309C43.8555 50.2654 43.7535 50.2068 43.6422 50.1551V47.6829C48.8609 46.1158 52.1671 43.0604 52.1671 39.7083C52.1671 35.6907 47.5537 32.21 40.6878 31.047C40.0943 30.9464 39.451 31.0093 38.953 31.2161C38.4552 31.4229 38.1616 31.7494 38.1616 32.0965V38.57C38.1616 38.5974 38.1375 38.6224 38.0969 38.6377L35.796 39.4927C35.7473 39.5107 35.6848 39.5107 35.6361 39.4927L33.3352 38.6375C33.2946 38.6224 33.2705 38.5974 33.2705 38.57V32.2015C33.2705 31.8463 32.963 31.5129 32.4454 31.3073C31.928 31.1018 31.2643 31.0492 30.665 31.1664C23.9143 32.4874 19.4702 36.2065 19.8575 40.2102C20.1595 43.3307 23.4502 46.1877 28.3583 47.6758V50.1277C27.3442 50.7595 26.7886 51.5665 26.7886 52.4232V52.5356C26.7886 52.6507 26.648 52.7547 26.4395 52.7946C25.2076 53.0281 23.9917 53.3099 22.8258 53.6325C22.629 53.6865 22.3995 53.6686 22.2542 53.587L22.1121 53.5075C19.7154 52.1663 15.816 52.1663 13.4193 53.5075L9.08438 55.934C6.68793 57.2753 6.68793 59.4581 9.08438 60.7996L9.22649 60.8791C9.372 60.9606 9.40445 61.089 9.30736 61.1991C8.73082 61.8521 8.22729 62.5325 7.81039 63.2216C7.73947 63.3384 7.55392 63.4171 7.3477 63.4171H7.1467C3.75734 63.4171 1 64.9605 1 66.8576V70.2889C1 72.1862 3.75734 73.7294 7.1467 73.7294H7.3477C7.5534 73.7294 7.73921 73.8079 7.81013 73.925C8.22729 74.6142 8.73082 75.2946 9.30709 75.9476C9.40419 76.0576 9.37174 76.1862 9.22701 76.2672L9.08412 76.3472C6.68767 77.6886 6.68767 79.8713 9.08412 81.2128L13.419 83.6392C15.8157 84.9804 19.7154 84.9804 22.1119 83.6392L22.254 83.5596C22.3995 83.4779 22.6293 83.4597 22.8256 83.5142C23.9915 83.8368 25.2073 84.1187 26.4389 84.3521C26.648 84.3916 26.7886 84.4956 26.7886 84.6111V84.7236C26.7886 85.6039 27.3832 86.408 28.3583 87.0169V89.3248C23.4505 90.813 20.1595 93.6699 19.8575 96.7903C19.4702 100.794 23.9145 104.513 30.665 105.834C31.264 105.951 31.9277 105.899 32.4454 105.693C32.963 105.488 33.2705 105.154 33.2705 104.799V98.43C33.2705 98.4026 33.2946 98.3776 33.3352 98.3624L35.6361 97.5073C35.6848 97.4892 35.7473 97.4895 35.796 97.5073L38.0969 98.3625C38.1375 98.3776 38.1616 98.4026 38.1616 98.43V104.904C38.1616 105.251 38.4552 105.577 38.953 105.784C39.2945 105.926 39.7048 106 40.1204 106C40.3104 106 40.5015 105.985 40.6876 105.953C47.554 104.79 52.1668 101.31 52.1668 97.2918C52.1668 93.9399 48.8607 90.8844 43.642 89.3173V87.0171C44.6174 86.4078 45.2117 85.6039 45.2117 84.7236V84.6111C45.2117 84.4959 45.352 84.3919 45.5608 84.3521C46.7929 84.1184 48.0088 83.8368 49.1744 83.5142C49.371 83.4599 49.6005 83.478 49.746 83.5596L49.8881 83.6392C52.2848 84.9804 56.1843 84.9804 58.581 83.6392L62.9159 81.2127C65.3123 79.8713 65.3123 77.6886 62.9151 76.3468L62.7735 76.2677C62.628 76.1862 62.5956 76.0576 62.6926 75.9476C63.2689 75.2947 63.7724 74.6143 64.1899 73.925C64.2605 73.8081 64.4463 73.7295 64.6523 73.7295H64.8533C68.2427 73.7295 71 72.1862 71 70.2891V66.8577C71.0005 64.9606 68.2432 63.4171 64.8538 63.4171ZM23.7698 40.0917C23.5295 37.6082 25.7394 35.2697 29.3525 33.9533V38.5706C29.3525 39.3346 30.0314 40.0427 31.168 40.4652L33.4684 41.3202C34.8334 41.8274 36.5979 41.8276 37.9629 41.3202L40.2636 40.4653C41.4007 40.0429 42.0793 39.3346 42.0793 38.5706V33.7589C45.8115 34.9636 48.2491 37.2345 48.2491 39.7088C48.2491 42.4342 45.364 44.901 40.8988 45.993C40.1853 46.1675 39.7242 46.562 39.7242 46.9978V66.1612C39.7242 66.7669 40.6012 67.2576 41.6831 67.2576C42.765 67.2576 43.642 66.7669 43.642 66.1612V62.737C44.1701 62.9544 44.6707 63.1946 45.1402 63.4574C50.1802 66.2784 50.1802 70.8684 45.1402 73.6896C44.6697 73.9529 44.1683 74.193 43.642 74.41V70.5472C43.642 69.9415 42.765 69.4508 41.6831 69.4508C40.6012 69.4508 39.7242 69.9415 39.7242 70.5472V75.5051C38.5314 75.7049 37.2801 75.8089 36.0001 75.8089C34.7201 75.8089 33.4686 75.7049 32.276 75.5051V46.9934C32.276 46.5588 31.8173 46.1652 31.1067 45.9898C26.8959 44.952 24.0161 42.6367 23.7698 40.0917ZM29.3669 77.2372C29.4907 77.2758 29.6229 77.3068 29.7613 77.3297C31.7597 77.774 33.8795 77.9973 36.0001 77.9973C38.1587 77.9973 40.3172 77.7671 42.3468 77.3068C42.429 77.2903 42.5093 77.2711 42.586 77.2488C44.5218 76.79 46.3355 76.1221 47.9109 75.2404C54.4787 71.5642 54.4787 65.5827 47.9109 61.9067C46.6503 61.2011 45.2151 60.6193 43.6422 60.171V58.6885C45.8547 59.2256 47.8866 59.9958 49.606 60.9582C53.2403 62.9923 55.2419 65.697 55.2419 68.5736C55.2419 71.4504 53.2403 74.1551 49.606 76.189C45.9717 78.2232 41.1395 79.3435 36.0001 79.3435C30.8607 79.3435 26.0283 78.2232 22.3943 76.189C18.7599 74.1549 16.7584 71.4503 16.7584 68.5736C16.7584 65.6968 18.7599 62.9922 22.3943 60.9579C24.1152 59.9947 26.1453 59.2252 28.358 58.6883V60.1715C26.7867 60.619 25.3534 61.1989 24.0893 61.9066C17.5215 65.5827 17.5215 71.5642 24.0893 75.2402C25.6517 76.1149 27.4491 76.7787 29.3669 77.2372ZM28.3578 62.737V74.4098C27.8317 74.1929 27.3306 73.9528 26.8595 73.6894C21.8196 70.8684 21.8196 66.2784 26.8595 63.4571C27.3298 63.194 27.8304 62.9541 28.3578 62.737ZM48.2493 97.292C48.2493 99.7662 45.8115 102.037 42.0796 103.242V98.4302C42.0796 97.6661 41.4007 96.958 40.2641 96.5356L37.9637 95.6805C36.5984 95.1733 34.8342 95.173 33.4692 95.6805L31.1688 96.5354C30.0314 96.9579 29.353 97.6661 29.353 98.4302V103.047C25.7399 101.731 23.5298 99.3924 23.7703 96.9089C24.0163 94.3641 26.8964 92.0489 31.107 91.0109C31.8178 90.8356 32.2763 90.442 32.2763 90.0074V88.144C32.4927 88.157 32.7128 88.164 32.9353 88.164H39.0655C39.2882 88.164 39.508 88.157 39.7245 88.144V90.0028C39.7245 90.4385 40.1856 90.8331 40.899 91.0076C45.364 92.0997 48.2493 94.5665 48.2493 97.292ZM67.0825 70.2891C67.0825 70.977 66.0825 71.5365 64.8538 71.5365H64.6531C62.7667 71.5365 61.0897 72.2137 60.4799 73.2215C60.1182 73.8195 59.6809 74.4098 59.1811 74.9764C58.3397 75.9297 58.6702 77.0717 60.0047 77.8186L60.1462 77.8977C61.0151 78.3843 61.0151 79.1757 60.1462 79.662L55.8113 82.0882C54.9422 82.5747 53.5285 82.5745 52.6591 82.0882L52.517 82.0086C51.1836 81.2623 49.1428 81.0769 47.4393 81.5481C46.4278 81.8277 45.3732 82.0724 44.3046 82.2749C42.5035 82.6161 41.2939 83.5549 41.2939 84.6109V84.7234C41.2939 85.4113 40.294 85.9709 39.065 85.9709H32.9348C31.7058 85.9709 30.7061 85.4112 30.7061 84.7234V84.6109C30.7061 83.5552 29.4965 82.6167 27.6954 82.2749C26.6268 82.0724 25.5719 81.8277 24.5604 81.5481C22.8575 81.0767 20.8167 81.262 19.483 82.0086L19.3409 82.0882C18.4721 82.5748 17.0581 82.5745 16.1889 82.0882L11.8543 79.6621C10.9854 79.1755 10.9854 78.3842 11.8535 77.8982L11.9964 77.8182C13.33 77.0717 13.6608 75.9296 12.8192 74.9764C12.3193 74.4098 11.8823 73.8193 11.5206 73.2215C10.9111 72.2134 9.23382 71.5364 7.34717 71.5364H7.14618C5.91721 71.5364 4.91749 70.9768 4.91749 70.2889V66.8576C4.91749 66.1697 5.91747 65.6101 7.14618 65.6101H7.34717C9.23355 65.6101 10.9106 64.9329 11.5206 63.9251C11.8823 63.3273 12.3193 62.7368 12.8192 62.1702C13.6608 61.2169 13.3298 60.0748 11.9961 59.3283L11.8543 59.2489C10.9854 58.7623 10.9854 57.971 11.8543 57.4847L16.1889 55.0583C17.0581 54.572 18.4721 54.572 19.3412 55.0583L19.4833 55.1379C20.817 55.8843 22.858 56.0698 24.5607 55.5984C25.5722 55.3188 26.6271 55.0741 27.6962 54.8716C27.927 54.8278 28.1479 54.7737 28.358 54.7113V56.334C25.0872 56.9739 22.0915 58.0258 19.6238 59.4071C15.2497 61.8554 12.8407 65.1109 12.8407 68.5733C12.8407 72.0358 15.2497 75.2911 19.6238 77.7395C23.998 80.1879 29.8139 81.5362 36.0001 81.5362C42.1864 81.5362 48.002 80.1879 52.3764 77.7395C56.7506 75.2912 59.1596 72.0358 59.1596 68.5733C59.1596 65.1109 56.7506 61.8556 52.3764 59.4071C49.9109 58.0273 46.9115 56.9749 43.6422 56.3352V54.7113C43.8524 54.7739 44.0735 54.8278 44.3046 54.8717C45.3729 55.0743 46.4276 55.3188 47.4396 55.5986C49.1428 56.0698 51.1833 55.8845 52.517 55.138L52.6591 55.0585C53.5279 54.5721 54.9422 54.5723 55.8111 55.0585L60.1457 57.4847C61.0146 57.9713 61.0146 58.7626 60.1465 59.2486L60.0036 59.3286C58.67 60.0751 58.3392 61.2172 59.1808 62.1704C59.6807 62.737 60.1177 63.3275 60.4794 63.9253C61.0889 64.9334 62.7662 65.6104 64.6528 65.6104H64.8538C66.0828 65.6104 67.0825 66.1701 67.0825 66.8579V70.2891Z" fill="white"/>
<path d="M36.0004 72.4475C37.0823 72.4475 37.9592 71.9568 37.9592 71.3511V50.7371C37.9592 50.1313 37.082 49.6406 36.0004 49.6406C34.9187 49.6406 34.0415 50.1313 34.0415 50.7371V71.3509C34.0415 71.9567 34.9185 72.4475 36.0004 72.4475Z" fill="white"/>
<path d="M145.939 50.8247L149.9 49.1773L148.497 44.7734L144.532 46.4221C144.185 45.6246 143.795 44.8556 143.365 44.119L146.599 41.0177L143.963 37.4277L140.726 40.5305C140.165 39.9186 139.569 39.3476 138.943 38.8198L141.055 34.6403L137.503 32.297L135.395 36.4704C134.687 36.1153 133.956 35.8094 133.205 35.557L133.937 30.8137L129.898 30L129.165 34.7451C128.78 34.7175 128.392 34.7019 128 34.7019C127.608 34.7019 127.22 34.7175 126.835 34.7451L126.102 30L122.063 30.8137L122.795 35.557C122.044 35.8096 121.313 36.1153 120.606 36.4704L118.497 32.297L114.945 34.6403L117.057 38.8198C116.431 39.3476 115.835 39.9186 115.274 40.5305L112.037 37.4277L109.401 41.0179L112.636 44.1191C112.206 44.8556 111.815 45.6248 111.468 46.4223L107.503 44.7735L106.1 49.1773L110.061 50.8247C109.88 51.6801 109.744 52.5557 109.657 53.448H93V76.8807H97.1016V105H109.406V95.6269H146.457V105H158.762V76.8807H163V53.448H146.342C146.256 52.5557 146.12 51.6801 145.939 50.8247ZM128 39.3884C135.219 39.3884 141.21 45.5095 142.208 53.448H138.048C137.095 48.1066 132.952 44.0749 128 44.0749C123.048 44.0749 118.905 48.1066 117.952 53.448H113.792C114.79 45.5095 120.781 39.3884 128 39.3884ZM133.8 53.448H122.2C123.047 50.7206 125.326 48.7615 128 48.7615C130.674 48.7615 132.953 50.7206 133.8 53.448ZM101.203 100.313V76.8807H105.305V100.313H101.203ZM109.406 90.9404V76.8807H113.645V86.2538H142.355V76.8807H146.457V90.9404H109.406ZM117.746 81.5673V67.5077H138.254V81.5673H117.746ZM154.66 100.313H150.559V76.8807H154.66V100.313ZM158.898 72.1942H142.355V62.8211H113.645V72.1942H97.1016V58.1346H158.898V72.1942Z" fill="white"/>
<path d="M130.051 72.1943H134.152V76.8809H130.051V72.1943Z" fill="white"/>
<path d="M121.848 72.1943H125.949V76.8809H121.848V72.1943Z" fill="white"/>
<path d="M252.834 47.0454H231.833V31.7045C231.833 30.7637 231.311 30 230.667 30H207.333C206.689 30 206.167 30.7637 206.167 31.7045V47.0454H185.167C184.523 47.0454 184 47.8091 184 48.7499V62.3864C184 63.3272 184.523 64.0908 185.167 64.0908H191V103.296C191 104.236 191.523 105 192.167 105H245.833C246.477 105 247 104.236 247 103.296V64.0908H252.833C253.477 64.0908 254 63.3272 254 62.3864V48.7499C254 47.8091 253.477 47.0454 252.834 47.0454ZM208.5 33.409H229.5V47.0454H227.167V38.5226C227.167 37.5818 226.644 36.8181 226 36.8181H212C211.356 36.8181 210.833 37.5818 210.833 38.5226V47.0454H208.5V33.409ZM224.833 40.2273V47.0454H213.167V40.2273H224.833ZM244.667 101.591H193.333V64.0908H196.833V67.5C196.833 68.4408 197.356 69.2045 198 69.2045H207.333C207.977 69.2045 208.5 68.4408 208.5 67.5V64.0908H229.5V67.5C229.5 68.4408 230.023 69.2045 230.667 69.2045H240C240.644 69.2045 241.167 68.4408 241.167 67.5V64.0908H244.667V101.591ZM199.167 65.7955V58.9774H206.167V65.7955H199.167ZM231.833 65.7955V58.9774H238.833V65.7955H231.833ZM251.667 60.6819H241.167V57.2727C241.167 56.3319 240.644 55.5682 240 55.5682H230.667C230.023 55.5682 229.5 56.3319 229.5 57.2727V60.6819H208.5V57.2727C208.5 56.3319 207.977 55.5682 207.333 55.5682H198C197.356 55.5682 196.833 56.3319 196.833 57.2727V60.6819H186.333V50.4546H251.667V60.6819H251.667Z" fill="white"/>
</svg>
