<svg width="255" height="150" viewBox="0 0 255 150" fill="none" xmlns="http://www.w3.org/2000/svg">
<path d="M78.5237 29.8999H97.3429C98.7543 29.8999 99.6952 28.98 99.6952 27.6V11.5001C99.6952 10.1201 98.7543 9.2002 97.3429 9.2002H78.5237C77.1122 9.2002 76.1714 10.1201 76.1714 11.5001V27.6C76.1714 28.98 77.1122 29.8999 78.5237 29.8999ZM80.876 13.8H94.9903V25.3001H80.876V13.8V13.8Z" fill="white"/>
<path d="M164.063 29.8999H182.882C184.294 29.8999 185.234 28.98 185.234 27.6V11.5001C185.234 10.1201 184.294 9.2002 182.882 9.2002H164.063C162.652 9.2002 161.711 10.1201 161.711 11.5001V27.6C161.71 28.98 162.652 29.8999 164.063 29.8999ZM166.415 13.8H180.53V25.3001H166.415V13.8Z" fill="white"/>
<path d="M118.044 55.89C116.162 54.7399 113.81 54.7399 111.928 55.6601C110.994 56.0967 110.052 56.4967 109.105 56.8635V43.7002V2.29991C109.105 0.91991 108.164 0 106.752 0C105.341 0 104.4 0.91991 104.4 2.29991V41.4H71.4666V2.29991C71.4666 0.91991 70.5258 0 69.1143 0C67.7029 0 66.762 0.91991 66.762 2.29991V43.6999V57.0323C65.884 56.6816 65.019 56.3027 64.1743 55.8897C62.2923 54.9698 59.94 54.9698 58.058 56.1196C56.176 57.2695 55 59.34 55 61.41V76.59C55 78.66 56.1763 80.5001 58.058 81.6499C58.9989 82.3399 60.1752 82.5698 61.3514 82.5698C62.2923 82.5698 63.2335 82.3399 63.9392 82.1097C64.8588 81.6602 65.8016 81.2486 66.762 80.8731V89.7V135.7C66.762 137.08 67.7029 138 69.1143 138C70.5258 138 71.4666 137.08 71.4666 135.7V91.9999H104.4V135.7C104.4 137.08 105.341 138 106.752 138C108.164 138 109.105 137.08 109.105 135.7V89.7V80.8734C110.065 81.2491 111.008 81.6604 111.928 82.11C112.868 82.5701 113.81 82.8 114.75 82.8C115.691 82.8 116.868 82.3399 118.044 81.6499C119.926 80.4998 121.102 78.4298 121.102 76.3598V61.1798C121.102 58.8799 119.926 57.0401 118.044 55.89ZM84.4287 75.4865C84.4014 75.2273 84.3239 74.9763 84.1695 74.7502L81.1115 69L84.6401 62.1H91.2267L94.7553 69L91.2267 75.9H84.6401L84.4287 75.4865ZM104.4 46.0001V58.3735C103.571 58.585 102.737 58.7691 101.898 58.9255C100.066 59.2519 98.2111 59.4753 96.2839 59.5451C96.2546 59.5462 96.2257 59.5481 96.1965 59.5489C95.8362 59.561 95.4726 59.5664 95.107 59.5678L94.7553 58.8796C94.2847 57.9597 93.579 57.4996 92.6381 57.4996H83.2287C82.2878 57.4996 81.5821 58.1896 81.1115 58.8796L80.7598 59.5675C77.7343 59.5562 74.4863 59.1009 71.4666 58.4195V45.9995H104.4V46.0001ZM61.8217 77.97C61.116 78.4301 60.6455 78.1999 60.4103 77.97C60.1752 77.7401 59.7046 77.28 59.7046 76.59V61.41C59.7046 60.4901 60.1752 60.03 60.4103 60.03C60.6455 60.03 60.8809 59.8001 61.3512 59.8001C61.5863 59.8001 61.8217 59.8001 61.5863 60.03C66.7615 62.5601 72.4072 64.17 78.0529 64.3999L76.1709 68.0798C75.9358 68.7698 75.9358 69.4598 76.1709 70.1498L77.9438 73.3998C74.7653 73.6524 71.5868 74.3219 68.4081 75.21C68.2054 75.3089 68.0147 75.4305 67.8385 75.5677C65.7994 76.2102 63.7933 77.0062 61.8217 77.97ZM104.4 87.4001H71.4666V79.3732C71.8694 79.2721 72.2738 79.178 72.6801 79.0896C74.9401 78.6282 77.2171 78.3088 79.6052 78.2234C79.6251 78.2226 79.6447 78.2215 79.6645 78.2207C79.9496 78.211 80.2379 78.2088 80.5263 78.2058L81.1112 79.3497C81.5818 80.0397 82.2875 80.4998 83.2284 80.4998H92.6378C93.5787 80.4998 94.2844 79.8098 94.755 79.3497L95.34 78.2061C97.9748 78.2355 100.766 78.5934 103.424 79.1408C103.751 79.2139 104.076 79.2915 104.4 79.3726V87.4001V87.4001ZM116.162 76.59C116.162 77.5099 115.691 77.7401 115.456 77.97C115.456 77.97 114.75 78.1999 114.045 77.97C111.767 76.8566 109.399 75.9663 106.979 75.2787C103.883 74.2596 100.787 73.8295 97.6912 73.6082L98.6364 71.7597L99.695 69.9196C99.9302 69.2296 99.9302 68.5396 99.695 67.8496L97.813 64.3996C103.459 63.9396 108.869 62.5595 114.044 60.0297C114.75 59.5696 115.221 59.7998 115.456 60.0297C115.691 60.2596 116.162 60.7197 116.162 61.4097V76.59H116.162Z" fill="white"/>
<path d="M194.879 2.29991C194.879 0.91991 193.939 0 192.527 0C191.116 0 190.175 0.91991 190.175 2.29991V43.6999H187.823C188.058 42.3199 187.587 40.9399 186.882 39.7898C186.585 39.326 186.229 38.9063 185.827 38.5373C184.616 37.3047 182.927 36.5697 181.236 36.5697H165.71C163.358 36.5697 161.476 37.7198 160.3 39.5596C159.492 40.8221 159.24 42.3013 159.464 43.6996H157.006V2.29991C157.006 0.91991 156.066 0 154.654 0C153.243 0 152.302 0.91991 152.302 2.29991V45.9998V90.9964C152.147 91.2846 152.067 91.6037 152.067 91.9996V135.7C152.067 137.08 153.008 137.999 154.419 137.999C155.83 137.999 156.771 137.08 156.771 135.7V94.2995H159.124C158.888 95.6795 159.359 97.2895 160.064 98.4396C161.241 100.28 163.358 101.429 165.475 101.429H181.001C182.555 101.429 183.902 100.925 184.978 100.054C185.69 99.6096 186.339 99.0592 186.882 98.4393C187.689 97.1768 187.942 95.6976 187.717 94.2993H189.94V135.699C189.94 137.079 190.881 137.999 192.292 137.999C193.704 137.999 194.645 137.079 194.645 135.699V91.9999V46.6572C194.753 46.4435 194.834 46.2219 194.88 45.9998V2.29991H194.879ZM179.589 65.3201C179.717 65.4454 179.847 65.5012 180.013 65.5274L180.53 65.7802V72.2201L179.912 72.5222C179.8 72.5621 179.692 72.6131 179.589 72.6802L173.59 75.6127L167.592 72.6802C167.317 72.5015 167.007 72.3942 166.69 72.3543L166.415 72.2201V65.7802L166.838 65.5734C167.103 65.5468 167.36 65.471 167.591 65.3201L173.472 62.3302L179.589 65.3201ZM182.412 95.91C182.177 96.1399 181.706 96.6 181 96.6H165.475C164.534 96.6 164.063 95.91 164.063 95.91C164.063 95.91 163.979 95.6604 163.962 95.3122C163.97 95.1375 163.999 94.9489 164.063 94.7599C164.262 94.3712 164.461 93.9812 164.66 93.4538C164.785 93.2964 164.901 93.1212 165.004 92.9198C167.104 88.3577 168.508 83.5695 168.761 78.5549L172.297 80.4998C173.003 80.7297 173.708 80.7297 174.414 80.4998L177.943 78.6597C178.365 83.6089 179.546 88.3726 181.65 92.9522C181.668 93.019 181.685 93.0864 181.707 93.1497C181.942 93.8397 182.177 94.2998 182.412 94.7596C182.577 95.0009 182.654 95.2133 182.676 95.3984C182.645 95.6256 182.528 95.796 182.412 95.91ZM174.414 57.7301C174.178 57.5002 173.943 57.5002 173.473 57.5002C173.002 57.5002 172.767 57.5002 172.296 57.5002L168.768 59.3403C168.346 54.3911 167.165 49.6272 165.06 45.0478C165.043 44.981 165.026 44.9136 165.004 44.8503L164.939 44.7872C164.872 44.6438 164.806 44.5001 164.738 44.357C164.668 44.0543 164.484 43.8333 164.298 43.4703C163.828 42.7803 164.063 42.3202 164.298 42.0903C164.533 41.8604 165.004 41.4003 165.71 41.4003H181.235C182.176 41.4003 182.647 42.0903 182.647 42.0903C182.647 42.0903 182.882 42.7803 182.647 43.4703C181.665 45.391 180.853 47.3782 180.196 49.4064C179.065 52.6845 178.34 56.0725 178.177 59.5702L174.414 57.7301ZM157.006 89.7V48.3H161.24C161.721 49.4148 162.139 50.5449 162.496 51.6899C163.408 54.6992 163.937 57.7786 164.042 60.9275C164.044 60.9739 164.046 61.0197 164.048 61.0661C164.054 61.2963 164.056 61.527 164.058 61.7577L162.887 62.3302C162.181 62.7903 161.711 63.4803 161.711 64.4002V73.6001C161.711 74.52 162.181 75.21 163.122 75.6701L164.056 76.1267C163.996 80.7861 163.013 85.432 161.232 89.7H157.006ZM185.886 89.7C184.101 85.2929 183.134 80.7311 183.119 76.0143L183.823 75.6701C184.764 75.21 185.235 74.52 185.235 73.6001V64.4002C185.235 63.4803 184.529 62.7903 183.823 62.3302L182.886 61.872C182.887 61.6264 182.89 61.3812 182.897 61.1364C182.901 60.993 182.908 60.8491 182.914 60.7054C182.92 60.5397 182.927 60.3742 182.937 60.2087C182.947 60.0163 182.959 59.8238 182.973 59.6308C182.98 59.5311 182.988 59.4316 182.996 59.3322C183.015 59.0955 183.035 58.8589 183.058 58.622C183.059 58.6158 183.06 58.6098 183.06 58.6036C183.414 55.1043 184.296 51.5732 185.705 48.3H189.939V89.7H185.886V89.7Z" fill="white"/>
</svg>
