<svg width="32" height="32" viewBox="0 0 32 32" fill="none" xmlns="http://www.w3.org/2000/svg">
<g clip-path="url(#clip0)">
<path fill-rule="evenodd" clip-rule="evenodd" d="M31.8799 6.15975C30.8629 6.61975 29.7439 6.89875 28.6479 7.08275C29.1679 6.99475 29.9359 6.05275 30.2429 5.67075C30.7109 5.08975 31.0999 4.42575 31.3189 3.71075C31.3469 3.65475 31.3689 3.58475 31.3129 3.54175C31.2429 3.51475 31.1969 3.52875 31.1409 3.55675C29.9275 4.20471 28.6378 4.69853 27.3019 5.02675C27.2556 5.04116 27.2062 5.04223 27.1593 5.02985C27.1125 5.01747 27.07 4.99214 27.0369 4.95675C26.9343 4.8336 26.8223 4.71859 26.7019 4.61275C26.1474 4.13506 25.5193 3.7501 24.8419 3.47275C23.9377 3.10651 22.9624 2.94927 21.9889 3.01275C21.0433 3.07704 20.1213 3.33757 19.2819 3.77775C18.4411 4.21732 17.6986 4.82366 17.0999 5.55975C16.4786 6.32404 16.0334 7.21585 15.7959 8.17175C15.5719 9.09175 15.5899 9.99975 15.7259 10.9288C15.7479 11.0828 15.7339 11.1038 15.5949 11.0828C10.3189 10.2998 5.94891 8.41175 2.39991 4.36975C2.24591 4.19375 2.16191 4.19375 2.03591 4.38275C0.482914 6.71075 1.23591 10.4498 3.17591 12.2878C3.43491 12.5328 3.69991 12.7778 3.98691 13.0008C3.88291 13.0228 2.59191 12.8828 1.44091 12.2878C1.28691 12.1908 1.20991 12.2468 1.19591 12.4208C1.18592 12.6735 1.19998 12.9267 1.23791 13.1768C1.53591 15.5368 3.16991 17.7188 5.40791 18.5708C5.67391 18.6818 5.96691 18.7808 6.25391 18.8288C5.74391 18.9408 5.21891 19.0208 3.75691 18.9068C3.57491 18.8708 3.50491 18.9618 3.57491 19.1368C4.67291 22.1318 7.04491 23.0228 8.82091 23.5298C9.05891 23.5718 9.29691 23.5718 9.53491 23.6278C9.52091 23.6488 9.50691 23.6488 9.49291 23.6698C8.90291 24.5678 6.86091 25.2368 5.90991 25.5698C4.17991 26.1738 2.29691 26.4458 0.467914 26.2658C0.175914 26.2228 0.113914 26.2258 0.034914 26.2658C-0.045086 26.3158 0.024914 26.3858 0.118914 26.4608C0.488914 26.7058 0.866914 26.9228 1.25191 27.1328C2.40786 27.749 3.62779 28.237 4.88991 28.5878C11.4269 30.3928 18.7899 29.0668 23.6999 24.1898C27.5529 20.3598 28.9039 15.0788 28.9039 9.78975C28.9039 9.58375 29.1479 9.46975 29.2939 9.35975C30.2969 8.60675 31.0939 7.70475 31.8419 6.69775C32.0099 6.47175 31.9999 6.27075 31.9999 6.18775V6.15975C31.9999 6.07575 32.0099 6.10075 31.8799 6.15975Z" fill="white"/>
</g>
<defs>
<clipPath id="clip0">
<rect width="32" height="32" fill="white"/>
</clipPath>
</defs>
</svg>
