<svg width="29" height="32" viewBox="0 0 29 32" fill="none" xmlns="http://www.w3.org/2000/svg">
<path d="M14.661 0.75C22.5531 0.75 28.951 7.14781 28.951 15.0399C28.951 22.9321 22.5532 29.3301 14.661 29.3301C12.7283 29.3301 10.8862 28.9449 9.20497 28.2493L1.28141 31.3438L3.21784 23.5979C1.43066 21.2123 0.371094 18.2503 0.371094 15.0399C0.371031 7.14788 6.76891 0.75 14.661 0.75ZM14.661 1.375C12.816 1.375 11.0265 1.73619 9.34216 2.44863C7.71503 3.13681 6.25359 4.12219 4.99841 5.37738C3.74322 6.63256 2.75784 8.094 2.06966 9.72112C1.35728 11.4054 0.996031 13.1949 0.996031 15.0399C0.996031 18.0165 1.93728 20.8462 3.71803 23.2232L3.89628 23.4611L3.82422 23.7496L2.18122 30.3214L8.97759 27.6671L9.21172 27.5757L9.44391 27.6717C11.1012 28.3575 12.8565 28.7051 14.661 28.7051C16.5061 28.7051 18.2955 28.3439 19.9798 27.6315C21.607 26.9432 23.0685 25.9579 24.3236 24.7027C25.5788 23.4475 26.5642 21.986 27.2523 20.3588C27.9647 18.6746 28.326 16.885 28.326 15.0399C28.326 13.1949 27.9648 11.4054 27.2523 9.72112C26.5641 8.094 25.5788 6.63256 24.3236 5.37738C23.0685 4.12219 21.607 3.13681 19.9798 2.44863C18.2955 1.73625 16.5061 1.375 14.661 1.375Z" fill="#0A8F3B"/>
</svg>
